<svg width="68" height="67" viewBox="0 0 68 67" fill="none" xmlns="http://www.w3.org/2000/svg">
<path opacity="0.5" d="M34 55.9123V50.25H22.6667V55.9123C22.6667 56.6859 22.6667 57.0728 22.9354 57.2292C23.2042 57.3855 23.5717 57.2124 24.3068 56.8665L27.8265 55.2097C28.0752 55.0927 28.1996 55.0344 28.3333 55.0344C28.4671 55.0344 28.5914 55.0927 28.8402 55.21L32.3598 56.8665C33.095 57.2124 33.4625 57.3855 33.7311 57.2292C34 57.0728 34 56.6859 34 55.9123Z" fill="#1C274D"/>
<path d="M22.6667 50.25H21.0403C17.97 50.25 16.8966 50.2659 16.0741 50.4401C14.6195 50.7483 13.3549 51.4088 12.433 52.301C12.122 52.602 11.9666 52.7525 11.6081 53.7108C11.2495 54.6695 11.3063 55.0762 11.4198 55.8892C11.4399 56.0327 11.4615 56.1728 11.4847 56.3096C11.7943 58.1303 12.3607 59.0946 13.2293 59.7813C14.0979 60.4681 15.3175 60.9158 17.6204 61.1607C19.991 61.4128 23.133 61.4167 27.6381 61.4167H40.192C44.697 61.4167 47.8391 61.4128 50.2098 61.1607C52.5127 60.9158 53.7322 60.4681 54.6009 59.7813C55.4693 59.0946 56.0357 58.1303 56.3454 56.3096C56.6055 54.7803 56.6567 52.8451 56.6667 50.25H34V55.9123C34 56.6859 34 57.0728 33.7311 57.2292C33.4625 57.3855 33.095 57.2124 32.3598 56.8665L28.8402 55.21C28.5914 55.0927 28.4671 55.0344 28.3333 55.0344C28.1996 55.0344 28.0752 55.0927 27.8265 55.2097L24.3068 56.8665C23.5717 57.2124 23.2042 57.3855 22.9354 57.2292C22.6667 57.0728 22.6667 56.6859 22.6667 55.9123V50.25Z" fill="#1C274D"/>
<path opacity="0.5" d="M13.3937 7.63052C14.259 6.77077 15.4738 6.21023 17.7679 5.90376C20.1295 5.58828 23.2594 5.58334 27.7471 5.58334H40.2529C44.7406 5.58334 47.8706 5.58828 50.2322 5.90376C52.5263 6.21023 53.741 6.77077 54.6063 7.63052C55.4716 8.4903 56.0357 9.69736 56.3442 11.9768C56.6616 14.3233 56.6667 17.4332 56.6667 21.8923V50.25H21.0403C17.97 50.25 16.8966 50.2659 16.0741 50.4401C14.6195 50.7483 13.3549 51.4088 12.433 52.301C12.122 52.602 11.9666 52.7525 11.6081 53.7108C11.4023 54.2608 11.3333 54.6293 11.3333 54.9967V21.8923C11.3333 17.4332 11.3383 14.3233 11.6558 11.9768C11.9643 9.69736 12.5284 8.4903 13.3937 7.63052Z" fill="#6C63FF"/>
<path d="M20.5417 19.5417C20.5417 18.3853 21.4931 17.4479 22.6667 17.4479H45.3333C46.5069 17.4479 47.4583 18.3853 47.4583 19.5417C47.4583 20.698 46.5069 21.6354 45.3333 21.6354H22.6667C21.4931 21.6354 20.5417 20.698 20.5417 19.5417Z" fill="#1C274D"/>
<path d="M22.6667 27.2188C21.4931 27.2188 20.5417 28.1562 20.5417 29.3125C20.5417 30.4688 21.4931 31.4062 22.6667 31.4062H36.8333C38.0069 31.4062 38.9583 30.4688 38.9583 29.3125C38.9583 28.1562 38.0069 27.2188 36.8333 27.2188H22.6667Z" fill="#1C274D"/>
</svg>
