<svg width="587" height="420" viewBox="0 0 587 420" fill="none" xmlns="http://www.w3.org/2000/svg">
<g clip-path="url(#clip0_8_93)">
<path d="M466.298 46.4742C465.564 45.9872 464.831 45.5251 464.097 45.0542C442.961 31.5419 420.307 20.5648 396.603 12.3494L391.106 88.1426H356.263V1.28577C354.07 0.832487 351.86 0.405608 349.649 0.000732422V88.1426H308.241C285.446 88.1426 263.584 79.0907 247.466 62.9783C231.347 46.8658 222.292 25.0126 222.292 2.22609C220.073 2.70505 217.871 3.21774 215.669 3.76637V88.1426H181.944L176.708 15.8694C152.348 25.2082 129.222 37.4891 107.844 52.4388C107.477 52.6911 107.105 52.9522 106.744 53.203C104.887 54.5049 103.054 55.8325 101.23 57.177V346.329H200.626L198.87 322.008L189.205 188.476H383.836L374.171 322.008L372.415 346.329H470.71V49.3978C469.248 48.4066 467.777 47.4321 466.298 46.4742ZM215.67 166.423H187.608L182.423 94.763H215.67V166.423ZM349.649 166.423H302.518V165.003C302.518 164.321 302.383 163.645 302.122 163.014C301.86 162.384 301.477 161.811 300.994 161.329C300.51 160.847 299.937 160.465 299.306 160.204C298.675 159.944 297.998 159.81 297.315 159.812H276.826C276.144 159.811 275.469 159.945 274.838 160.206C274.208 160.467 273.636 160.849 273.153 161.331C272.671 161.814 272.288 162.386 272.028 163.016C271.767 163.646 271.632 164.321 271.633 165.003V166.423H222.292V94.763H349.649V166.423ZM356.263 166.423V94.763H390.627L385.442 166.423H356.263Z" fill="#E6E6E6"/>
<path d="M0 364.845C6.4235 373.426 13.4331 381.552 20.9786 389.166L566.022 390.006C573.568 382.392 580.577 374.266 587.001 365.685L0 364.845Z" fill="#F2F2F2"/>
<path d="M371.335 286.97V358.969C371.335 359.887 371.7 360.767 372.349 361.416C372.998 362.065 373.879 362.429 374.797 362.43H481.529C482.447 362.429 483.327 362.064 483.976 361.415C484.625 360.767 484.99 359.887 484.991 358.969V286.97C484.989 286.053 484.623 285.174 483.975 284.526C483.326 283.878 482.446 283.514 481.529 283.513H374.797C373.879 283.514 373 283.878 372.351 284.526C371.702 285.174 371.337 286.053 371.335 286.97Z" fill="#3F3D56"/>
<path d="M373.839 287.865V358.08C373.84 358.57 374.035 359.04 374.382 359.386C374.729 359.733 375.198 359.928 375.689 359.929H480.644C481.135 359.928 481.605 359.733 481.951 359.386C482.298 359.04 482.493 358.57 482.494 358.08V287.865C482.494 287.374 482.299 286.903 481.953 286.555C481.606 286.208 481.135 286.012 480.644 286.011H375.689C375.198 286.012 374.727 286.208 374.381 286.555C374.034 286.903 373.839 287.374 373.839 287.865Z" fill="#6C63FF"/>
<path d="M369.103 373.01C369.298 373.256 369.546 373.454 369.829 373.59C370.112 373.726 370.422 373.796 370.736 373.795H485.026C485.338 373.794 485.646 373.724 485.928 373.59C486.21 373.455 486.459 373.259 486.655 373.017C486.852 372.774 486.992 372.491 487.066 372.187C487.139 371.883 487.144 371.567 487.08 371.262L485.306 362.838C485.232 362.494 485.074 362.174 484.845 361.908C484.616 361.641 484.325 361.436 483.996 361.311C483.758 361.217 483.505 361.17 483.25 361.17H372.503C372.247 361.17 371.994 361.217 371.757 361.311C371.428 361.436 371.136 361.641 370.907 361.908C370.679 362.174 370.52 362.494 370.447 362.838L368.673 371.262C368.609 371.567 368.615 371.883 368.689 372.186C368.764 372.489 368.905 372.772 369.102 373.014L369.103 373.01Z" fill="#2F2E41"/>
<path d="M373.675 364.795H376.479C376.677 364.795 376.837 364.634 376.837 364.437V363.042C376.837 362.844 376.677 362.684 376.479 362.684H373.675C373.478 362.684 373.317 362.844 373.317 363.042V364.437C373.317 364.634 373.478 364.795 373.675 364.795Z" fill="#3F3D56"/>
<path d="M373.759 368.313H376.563C376.76 368.313 376.921 368.153 376.921 367.955V366.56C376.921 366.362 376.76 366.202 376.563 366.202H373.759C373.561 366.202 373.401 366.362 373.401 366.56V367.955C373.401 368.153 373.561 368.313 373.759 368.313Z" fill="#3F3D56"/>
<path d="M448.32 372.536H420.98C420.871 372.536 420.766 372.493 420.69 372.416C420.613 372.339 420.569 372.235 420.569 372.126V370.835C420.569 370.727 420.613 370.622 420.69 370.546C420.766 370.469 420.871 370.425 420.98 370.425H448.32C448.429 370.425 448.533 370.469 448.61 370.546C448.687 370.622 448.73 370.727 448.73 370.835V372.126C448.73 372.235 448.687 372.339 448.61 372.416C448.533 372.493 448.429 372.536 448.32 372.536Z" fill="#3F3D56"/>
<path d="M392.18 301.374H389.457C388.824 301.374 388.312 301.886 388.312 302.519V302.852C388.312 303.484 388.824 303.996 389.457 303.996H392.18C392.812 303.996 393.325 303.484 393.325 302.852V302.519C393.325 301.886 392.812 301.374 392.18 301.374Z" fill="white"/>
<path d="M419.513 301.374H416.791C416.158 301.374 415.645 301.886 415.645 302.519V302.852C415.645 303.484 416.158 303.996 416.791 303.996H419.513C420.146 303.996 420.659 303.484 420.659 302.852V302.519C420.659 301.886 420.146 301.374 419.513 301.374Z" fill="white"/>
<path d="M427.257 301.374H424.535C423.902 301.374 423.389 301.886 423.389 302.519V302.852C423.389 303.484 423.902 303.996 424.535 303.996H427.257C427.89 303.996 428.403 303.484 428.403 302.852V302.519C428.403 301.886 427.89 301.374 427.257 301.374Z" fill="white"/>
<path d="M412.078 301.154H396.892C396.259 301.154 395.747 301.667 395.747 302.299V302.632C395.747 303.265 396.259 303.777 396.892 303.777H412.078C412.711 303.777 413.224 303.265 413.224 302.632V302.299C413.224 301.667 412.711 301.154 412.078 301.154Z" fill="white"/>
<path d="M448.522 301.154H433.336C432.703 301.154 432.19 301.667 432.19 302.299V302.632C432.19 303.265 432.703 303.777 433.336 303.777H448.522C449.155 303.777 449.668 303.265 449.668 302.632V302.299C449.668 301.667 449.155 301.154 448.522 301.154Z" fill="white"/>
<path d="M399.469 307.293H396.746C396.113 307.293 395.601 307.805 395.601 308.438V308.771C395.601 309.403 396.113 309.916 396.746 309.916H399.469C400.101 309.916 400.614 309.403 400.614 308.771V308.438C400.614 307.805 400.101 307.293 399.469 307.293Z" fill="white"/>
<path d="M426.802 307.293H424.079C423.446 307.293 422.933 307.805 422.933 308.438V308.771C422.933 309.403 423.446 309.916 424.079 309.916H426.802C427.434 309.916 427.947 309.403 427.947 308.771V308.438C427.947 307.805 427.434 307.293 426.802 307.293Z" fill="white"/>
<path d="M434.547 307.293H431.824C431.191 307.293 430.678 307.805 430.678 308.438V308.771C430.678 309.403 431.191 309.916 431.824 309.916H434.547C435.179 309.916 435.692 309.403 435.692 308.771V308.438C435.692 307.805 435.179 307.293 434.547 307.293Z" fill="white"/>
<path d="M419.367 307.074H404.181C403.548 307.074 403.036 307.587 403.036 308.219V308.552C403.036 309.184 403.548 309.697 404.181 309.697H419.367C420 309.697 420.513 309.184 420.513 308.552V308.219C420.513 307.587 420 307.074 419.367 307.074Z" fill="white"/>
<path d="M455.811 307.074H440.624C439.992 307.074 439.479 307.587 439.479 308.219V308.552C439.479 309.184 439.992 309.697 440.624 309.697H455.811C456.443 309.697 456.956 309.184 456.956 308.552V308.219C456.956 307.587 456.443 307.074 455.811 307.074Z" fill="white"/>
<path d="M406.758 313.213H404.035C403.402 313.213 402.89 313.726 402.89 314.358V314.691C402.89 315.324 403.402 315.836 404.035 315.836H406.758C407.391 315.836 407.903 315.324 407.903 314.691V314.358C407.903 313.726 407.391 313.213 406.758 313.213Z" fill="white"/>
<path d="M434.09 313.213H431.367C430.735 313.213 430.222 313.726 430.222 314.358V314.691C430.222 315.324 430.735 315.836 431.367 315.836H434.09C434.723 315.836 435.236 315.324 435.236 314.691V314.358C435.236 313.726 434.723 313.213 434.09 313.213Z" fill="white"/>
<path d="M441.835 313.213H439.112C438.479 313.213 437.967 313.726 437.967 314.358V314.691C437.967 315.324 438.479 315.836 439.112 315.836H441.835C442.467 315.836 442.98 315.324 442.98 314.691V314.358C442.98 313.726 442.467 313.213 441.835 313.213Z" fill="white"/>
<path d="M426.656 312.994H411.469C410.837 312.994 410.324 313.507 410.324 314.139V314.472C410.324 315.104 410.837 315.617 411.469 315.617H426.656C427.288 315.617 427.801 315.104 427.801 314.472V314.139C427.801 313.507 427.288 312.994 426.656 312.994Z" fill="white"/>
<path d="M463.1 312.994H447.913C447.281 312.994 446.768 313.507 446.768 314.139V314.472C446.768 315.104 447.281 315.617 447.913 315.617H463.1C463.732 315.617 464.245 315.104 464.245 314.472V314.139C464.245 313.507 463.732 312.994 463.1 312.994Z" fill="white"/>
<path d="M414.046 319.132H411.323C410.691 319.132 410.178 319.645 410.178 320.277V320.61C410.178 321.243 410.691 321.755 411.323 321.755H414.046C414.679 321.755 415.192 321.243 415.192 320.61V320.277C415.192 319.645 414.679 319.132 414.046 319.132Z" fill="white"/>
<path d="M441.379 319.132H438.656C438.024 319.132 437.511 319.645 437.511 320.277V320.61C437.511 321.243 438.024 321.755 438.656 321.755H441.379C442.012 321.755 442.525 321.243 442.525 320.61V320.277C442.525 319.645 442.012 319.132 441.379 319.132Z" fill="white"/>
<path d="M449.123 319.132H446.4C445.768 319.132 445.255 319.645 445.255 320.277V320.61C445.255 321.243 445.768 321.755 446.4 321.755H449.123C449.756 321.755 450.269 321.243 450.269 320.61V320.277C450.269 319.645 449.756 319.132 449.123 319.132Z" fill="white"/>
<path d="M433.945 318.914H418.758C418.126 318.914 417.613 319.426 417.613 320.059V320.392C417.613 321.024 418.126 321.537 418.758 321.537H433.945C434.577 321.537 435.09 321.024 435.09 320.392V320.059C435.09 319.426 434.577 318.914 433.945 318.914Z" fill="white"/>
<path d="M419.513 342.672H416.791C416.158 342.672 415.645 343.185 415.645 343.817V344.15C415.645 344.783 416.158 345.295 416.791 345.295H419.513C420.146 345.295 420.659 344.783 420.659 344.15V343.817C420.659 343.185 420.146 342.672 419.513 342.672Z" fill="white"/>
<path d="M427.257 342.672H424.535C423.902 342.672 423.389 343.185 423.389 343.817V344.15C423.389 344.783 423.902 345.295 424.535 345.295H427.257C427.89 345.295 428.403 344.783 428.403 344.15V343.817C428.403 343.185 427.89 342.672 427.257 342.672Z" fill="white"/>
<path d="M448.522 342.891H433.336C432.703 342.891 432.19 343.404 432.19 344.036V344.369C432.19 345.001 432.703 345.514 433.336 345.514H448.522C449.155 345.514 449.668 345.001 449.668 344.369V344.036C449.668 343.404 449.155 342.891 448.522 342.891Z" fill="white"/>
<path d="M392.18 342.672H389.457C388.824 342.672 388.312 343.185 388.312 343.817V344.15C388.312 344.783 388.824 345.295 389.457 345.295H392.18C392.812 345.295 393.325 344.783 393.325 344.15V343.817C393.325 343.185 392.812 342.672 392.18 342.672Z" fill="white"/>
<path d="M412.078 342.891H396.892C396.259 342.891 395.747 343.404 395.747 344.036V344.369C395.747 345.001 396.259 345.514 396.892 345.514H412.078C412.711 345.514 413.224 345.001 413.224 344.369V344.036C413.224 343.404 412.711 342.891 412.078 342.891Z" fill="white"/>
<path d="M399.469 336.753H396.746C396.113 336.753 395.601 337.265 395.601 337.898V338.231C395.601 338.863 396.113 339.375 396.746 339.375H399.469C400.101 339.375 400.614 338.863 400.614 338.231V337.898C400.614 337.265 400.101 336.753 399.469 336.753Z" fill="white"/>
<path d="M426.802 336.753H424.079C423.446 336.753 422.933 337.265 422.933 337.898V338.231C422.933 338.863 423.446 339.375 424.079 339.375H426.802C427.434 339.375 427.947 338.863 427.947 338.231V337.898C427.947 337.265 427.434 336.753 426.802 336.753Z" fill="white"/>
<path d="M434.547 336.753H431.824C431.191 336.753 430.678 337.265 430.678 337.898V338.231C430.678 338.863 431.191 339.375 431.824 339.375H434.547C435.179 339.375 435.692 338.863 435.692 338.231V337.898C435.692 337.265 435.179 336.753 434.547 336.753Z" fill="white"/>
<path d="M419.367 336.971H404.181C403.548 336.971 403.036 337.484 403.036 338.116V338.449C403.036 339.081 403.548 339.594 404.181 339.594H419.367C420 339.594 420.513 339.081 420.513 338.449V338.116C420.513 337.484 420 336.971 419.367 336.971Z" fill="white"/>
<path d="M406.758 330.833H404.035C403.402 330.833 402.89 331.345 402.89 331.978V332.311C402.89 332.943 403.402 333.456 404.035 333.456H406.758C407.391 333.456 407.903 332.943 407.903 332.311V331.978C407.903 331.345 407.391 330.833 406.758 330.833Z" fill="white"/>
<path d="M434.09 330.833H431.367C430.735 330.833 430.222 331.345 430.222 331.978V332.311C430.222 332.943 430.735 333.456 431.367 333.456H434.09C434.723 333.456 435.236 332.943 435.236 332.311V331.978C435.236 331.345 434.723 330.833 434.09 330.833Z" fill="white"/>
<path d="M441.835 330.833H439.112C438.479 330.833 437.967 331.345 437.967 331.978V332.311C437.967 332.943 438.479 333.456 439.112 333.456H441.835C442.467 333.456 442.98 332.943 442.98 332.311V331.978C442.98 331.345 442.467 330.833 441.835 330.833Z" fill="white"/>
<path d="M426.656 331.051H411.469C410.837 331.051 410.324 331.564 410.324 332.196V332.529C410.324 333.162 410.837 333.674 411.469 333.674H426.656C427.288 333.674 427.801 333.162 427.801 332.529V332.196C427.801 331.564 427.288 331.051 426.656 331.051Z" fill="white"/>
<path d="M414.046 324.913H411.323C410.691 324.913 410.178 325.425 410.178 326.058V326.391C410.178 327.023 410.691 327.536 411.323 327.536H414.046C414.679 327.536 415.192 327.023 415.192 326.391V326.058C415.192 325.425 414.679 324.913 414.046 324.913Z" fill="white"/>
<path d="M441.379 324.913H438.656C438.024 324.913 437.511 325.425 437.511 326.058V326.391C437.511 327.023 438.024 327.536 438.656 327.536H441.379C442.012 327.536 442.525 327.023 442.525 326.391V326.058C442.525 325.425 442.012 324.913 441.379 324.913Z" fill="white"/>
<path d="M449.123 324.913H446.4C445.768 324.913 445.255 325.425 445.255 326.058V326.391C445.255 327.023 445.768 327.536 446.4 327.536H449.123C449.756 327.536 450.269 327.023 450.269 326.391V326.058C450.269 325.425 449.756 324.913 449.123 324.913Z" fill="white"/>
<path d="M433.945 325.131H418.758C418.126 325.131 417.613 325.644 417.613 326.276V326.609C417.613 327.242 418.126 327.754 418.758 327.754H433.945C434.577 327.754 435.09 327.242 435.09 326.609V326.276C435.09 325.644 434.577 325.131 433.945 325.131Z" fill="white"/>
<path d="M116.068 283.516V369.676H176.451V283.516C176.453 282.896 176.255 282.292 175.887 281.793C175.52 281.294 175.002 280.926 174.409 280.743C174.13 280.651 173.838 280.606 173.544 280.609H118.983C118.601 280.608 118.222 280.683 117.869 280.829C117.515 280.975 117.194 281.188 116.923 281.458C116.652 281.728 116.437 282.049 116.29 282.402C116.144 282.755 116.068 283.133 116.068 283.516ZM139.636 313.121C139.636 311.412 140.315 309.773 141.524 308.565C142.732 307.356 144.372 306.677 146.082 306.677C147.791 306.677 149.431 307.356 150.64 308.565C151.848 309.773 152.528 311.412 152.528 313.121V323.118C152.528 324.827 151.848 326.466 150.64 327.674C149.431 328.883 147.791 329.562 146.082 329.562C144.372 329.562 142.732 328.883 141.524 327.674C140.315 326.466 139.636 324.827 139.636 323.118V313.121Z" fill="#2F2E41"/>
<path d="M115.883 366.92V375.229C115.884 375.659 116.055 376.072 116.359 376.377C116.663 376.682 117.074 376.855 117.505 376.859H175.015C175.446 376.857 175.858 376.684 176.162 376.379C176.466 376.073 176.637 375.66 176.637 375.229V366.92H115.883Z" fill="#3F3D56"/>
<path d="M21.0755 153.705V311.021C21.0771 313.026 21.8744 314.948 23.2925 316.365C24.7106 317.783 26.6335 318.58 28.639 318.582H261.856C263.861 318.58 265.784 317.783 267.202 316.365C268.62 314.948 269.418 313.026 269.419 311.021V153.705C269.415 151.701 268.616 149.781 267.199 148.365C265.781 146.949 263.86 146.153 261.856 146.15H28.639C26.6348 146.152 24.7134 146.949 23.2956 148.365C21.8779 149.781 21.0796 151.701 21.0755 153.705Z" fill="#3F3D56"/>
<path d="M26.5463 155.662V309.08C26.5483 310.151 26.9748 311.178 27.7324 311.935C28.49 312.693 29.5171 313.119 30.5886 313.121H259.913C260.984 313.119 262.011 312.693 262.769 311.935C263.526 311.178 263.953 310.151 263.955 309.08V155.662C263.955 154.59 263.529 153.561 262.771 152.802C262.014 152.043 260.985 151.615 259.913 151.613H30.5886C29.5157 151.615 28.4875 152.043 27.7297 152.802C26.9719 153.561 26.5463 154.59 26.5463 155.662Z" fill="white"/>
<path d="M69.1067 376.296C69.3402 376.589 69.6368 376.825 69.9745 376.986C70.3122 377.147 70.682 377.23 71.0563 377.228H207.488C207.861 377.228 208.229 377.144 208.566 376.983C208.902 376.823 209.199 376.589 209.434 376.3C209.669 376.01 209.836 375.672 209.924 375.309C210.012 374.947 210.018 374.569 209.941 374.204L207.824 364.148C207.736 363.738 207.547 363.357 207.274 363.039C207.001 362.72 206.653 362.475 206.261 362.326C205.977 362.214 205.675 362.158 205.37 362.158H73.1644C72.8596 362.158 72.5574 362.215 72.2736 362.326C71.8817 362.475 71.5334 362.72 71.2604 363.039C70.9875 363.357 70.7985 363.738 70.7107 364.148L68.5931 374.204C68.5179 374.569 68.525 374.946 68.6138 375.308C68.7027 375.67 68.8711 376.008 69.1067 376.296Z" fill="#2F2E41"/>
<path d="M252.47 172.747H37.8931C37.6668 172.747 37.4497 172.657 37.2897 172.497C37.1296 172.337 37.0397 172.12 37.0397 171.894C37.0397 171.668 37.1296 171.451 37.2897 171.291C37.4497 171.131 37.6668 171.041 37.8931 171.041H252.471C252.697 171.041 252.914 171.131 253.074 171.291C253.234 171.451 253.324 171.668 253.324 171.894C253.324 172.12 253.234 172.337 253.074 172.497C252.914 172.657 252.697 172.747 252.47 172.747Z" fill="#3F3D56"/>
<path d="M52.4991 166.685C55.2608 166.685 57.4996 164.397 57.4996 161.575C57.4996 158.753 55.2608 156.465 52.4991 156.465C49.7374 156.465 47.4986 158.753 47.4986 161.575C47.4986 164.397 49.7374 166.685 52.4991 166.685Z" fill="#3F3D56"/>
<path d="M69.7745 166.685C72.5362 166.685 74.775 164.397 74.775 161.575C74.775 158.753 72.5362 156.465 69.7745 156.465C67.0128 156.465 64.774 158.753 64.774 161.575C64.774 164.397 67.0128 166.685 69.7745 166.685Z" fill="#3F3D56"/>
<path d="M87.0499 166.685C89.8116 166.685 92.0504 164.397 92.0504 161.575C92.0504 158.753 89.8116 156.465 87.0499 156.465C84.2882 156.465 82.0494 158.753 82.0494 161.575C82.0494 164.397 84.2882 166.685 87.0499 166.685Z" fill="#3F3D56"/>
<path d="M378.537 362.081H480.222L482.224 368.802H378.537V362.081Z" fill="#3F3D56"/>
<path d="M242.068 157.728H229.797C229.556 157.735 229.326 157.836 229.157 158.009C228.989 158.183 228.895 158.415 228.895 158.657C228.895 158.898 228.989 159.131 229.157 159.304C229.326 159.477 229.556 159.578 229.797 159.585H242.067C242.191 159.588 242.315 159.567 242.431 159.522C242.546 159.477 242.652 159.409 242.741 159.322C242.83 159.236 242.901 159.132 242.949 159.018C242.997 158.904 243.022 158.781 243.022 158.657C243.022 158.533 242.997 158.41 242.949 158.295C242.901 158.181 242.83 158.077 242.741 157.991C242.652 157.904 242.546 157.837 242.431 157.791C242.315 157.746 242.191 157.725 242.067 157.728H242.068Z" fill="#3F3D56"/>
<path d="M242.067 161.215H229.797C229.551 161.215 229.315 161.312 229.14 161.487C228.966 161.661 228.868 161.897 228.868 162.143C228.868 162.39 228.966 162.626 229.14 162.8C229.315 162.974 229.551 163.072 229.797 163.072H242.067C242.191 163.075 242.315 163.054 242.43 163.009C242.546 162.964 242.652 162.896 242.741 162.809C242.83 162.723 242.9 162.619 242.949 162.505C242.997 162.391 243.022 162.268 243.022 162.144C243.022 162.019 242.997 161.897 242.949 161.782C242.9 161.668 242.83 161.564 242.741 161.478C242.652 161.391 242.546 161.323 242.43 161.278C242.315 161.233 242.191 161.212 242.067 161.215V161.215Z" fill="#3F3D56"/>
<path d="M242.068 164.702H229.797C229.556 164.708 229.326 164.809 229.157 164.982C228.989 165.156 228.895 165.388 228.895 165.63C228.895 165.872 228.989 166.104 229.157 166.277C229.326 166.45 229.556 166.551 229.797 166.558H242.067C242.191 166.562 242.315 166.54 242.431 166.495C242.546 166.45 242.652 166.382 242.741 166.296C242.83 166.209 242.901 166.106 242.949 165.991C242.997 165.877 243.022 165.754 243.022 165.63C243.022 165.506 242.997 165.383 242.949 165.268C242.901 165.154 242.83 165.051 242.741 164.964C242.652 164.878 242.546 164.81 242.431 164.765C242.315 164.72 242.191 164.698 242.067 164.702H242.068Z" fill="#3F3D56"/>
<path d="M522.843 370.588C523.169 371.537 523.787 372.358 524.609 372.933C525.431 373.508 526.413 373.809 527.417 373.791L547.012 373.287C548.023 373.267 548.999 372.921 549.797 372.3C550.594 371.679 551.169 370.818 551.436 369.843L554.209 340.203C555.192 340.648 556.263 340.868 557.343 340.847C559.238 340.799 561.036 340.001 562.342 338.628C563.648 337.256 564.355 335.42 564.308 333.526C564.26 331.632 563.462 329.835 562.088 328.529C560.715 327.224 558.879 326.517 556.984 326.565C556.553 326.563 556.122 326.608 555.7 326.698C555.241 326.202 554.684 325.807 554.063 325.539C553.442 325.271 552.772 325.136 552.095 325.143L521.954 325.921C521.704 325.931 521.455 325.962 521.211 326.014C520.55 326.137 519.923 326.4 519.372 326.786C518.821 327.172 518.36 327.671 518.018 328.25C517.677 328.829 517.463 329.474 517.392 330.143C517.321 330.811 517.394 331.487 517.606 332.124L522.843 370.588ZM554.777 338.191L556.75 331.128C556.975 330.312 556.98 329.452 556.766 328.634C556.861 328.634 556.946 328.588 557.042 328.588C558.397 328.557 559.709 329.064 560.69 330C561.671 330.936 562.24 332.222 562.272 333.577C562.303 334.932 561.795 336.244 560.859 337.224C559.923 338.205 558.636 338.773 557.281 338.805C556.406 338.832 555.541 338.62 554.777 338.192V338.191Z" fill="#E6E6E6"/>
<path d="M521.211 326.017C521.853 329.684 529.073 332.267 537.754 331.819C545.737 331.453 552.264 328.649 553.46 325.329C553.018 325.198 552.558 325.136 552.096 325.147L521.955 325.925C521.705 325.934 521.456 325.965 521.211 326.017L521.211 326.017Z" fill="#D6D6E3"/>
<path d="M316.287 305.083C316.287 305.083 251.076 312.945 257.303 305.083C259.557 302.24 260.18 293.815 260.055 284.218C260.015 281.302 259.908 278.282 259.761 275.275C259.04 260.863 257.304 246.777 257.304 246.777C257.304 246.777 314.322 219.916 307.769 241.208C305.147 249.811 306.008 261.892 307.998 273.231C308.582 276.54 309.257 279.782 309.965 282.861C311.691 290.372 313.801 297.789 316.287 305.083Z" fill="#ED9DA0"/>
<path d="M192.512 419.974V419.423L307.609 418.172L377.735 417.517H377.932L377.858 418.487L377.957 417.517H378.082V417.406L378.98 408.595L379.32 405.26L379.425 404.219L379.517 403.347L383.567 389.845L387.617 376.362L391.026 365.009L396.229 347.661C396.229 347.661 393.28 340.781 391.642 338.816C390.003 336.852 383.571 322.786 383.571 322.786C383.571 322.786 374.382 310.103 368.268 308.57C365.705 307.915 360.645 307.043 355.271 305.949C353.26 305.543 337.839 301.09 336.921 300.472C332.104 296.941 320.032 296.541 319.566 296.541C319.565 296.526 319.565 296.511 319.566 296.495V296.437C319.583 296.162 319.583 295.886 319.566 295.611C319.574 295.305 319.554 294.998 319.508 294.695C319.515 294.583 319.499 294.472 319.462 294.367C319.428 294.131 319.388 293.882 319.33 293.62C319.31 293.503 319.284 293.387 319.252 293.273C319.062 292.484 318.787 291.717 318.432 290.987C318.386 290.882 318.327 290.77 318.275 290.666C317.954 290.06 317.581 289.484 317.161 288.943C317.076 288.831 316.984 288.713 316.886 288.602C316.349 287.97 315.752 287.39 315.103 286.873C314.926 286.735 314.743 286.591 314.553 286.46C314.447 286.374 314.335 286.295 314.218 286.224L313.635 285.844L313.091 285.529C312.613 285.267 312.108 285.011 311.558 284.769C311.387 284.691 311.204 284.619 311.02 284.549C310.837 284.48 310.549 284.366 310.306 284.274H310.266L309.775 284.078C309.401 283.953 309.021 283.841 308.621 283.731L308.011 283.574L307.356 283.423L306.701 283.285C306.046 283.154 305.344 283.037 304.61 282.945L303.863 282.853L303.097 282.775L302.304 282.71L301.176 282.644L299.866 282.598C294.082 282.598 288.315 283.211 282.661 284.427C278.737 283.555 274.718 283.185 270.701 283.327H270.131L269.476 283.367H269.054L268.209 283.445C267.923 283.459 267.639 283.492 267.357 283.544C267.075 283.583 266.78 283.617 266.499 283.662L266.067 283.735C265.64 283.808 265.208 283.885 264.756 283.977C264.612 284.004 264.468 284.036 264.324 284.075C263.754 284.2 263.184 284.35 262.62 284.521C262.338 284.599 262.057 284.691 261.775 284.789C261.628 284.829 261.493 284.881 261.355 284.936L260.935 285.086L260.522 285.25L260.031 285.446C259.782 285.551 259.539 285.663 259.297 285.781C259.159 285.839 259.022 285.905 258.89 285.977C258.759 286.049 258.622 286.109 258.497 286.18C257.015 286.946 255.646 287.911 254.427 289.05L254.092 289.371L253.764 289.706C253.653 289.817 253.548 289.935 253.443 290.052C253.016 290.519 252.617 291.012 252.25 291.527C252.145 291.665 252.047 291.802 251.948 291.946C251.533 292.559 251.156 293.198 250.821 293.859C250.736 294.016 250.658 294.18 250.579 294.337C250.045 295.444 249.606 296.595 249.269 297.777C249.147 298.213 249.035 298.65 248.934 299.087C248.934 299.087 235.06 305.206 223.552 309.635C220.491 310.814 217.608 311.882 215.196 312.687C214.494 312.923 213.839 313.139 213.229 313.342C211.907 313.82 210.532 314.137 209.133 314.286C208.474 314.296 207.817 314.358 207.167 314.469C201.878 315.327 192.814 319.055 191.824 322.796C191.744 323.095 191.722 323.406 191.759 323.713C191.759 323.713 170.204 390.425 169.967 391.65C169.013 396.642 166.885 406.148 165.838 409.993C165.058 412.863 163.924 416.793 163.144 419.492C163.132 419.571 163.111 419.649 163.079 419.722L192.46 419.434V419.984H192.551L192.512 419.974Z" fill="#6C63FF"/>
<path d="M319.603 295.636C300.599 299.135 264.813 298.381 249.347 297.851C255.016 277.542 282.659 284.447 282.659 284.447C316.877 277.62 319.498 291.784 319.603 295.636Z" fill="#6C63FF"/>
<path d="M420.492 385.173C420.492 385.173 442.88 381.734 443.319 391.561C443.759 401.388 431.903 408.253 431.903 408.253L420.492 385.173Z" fill="#ED9DA0"/>
<path d="M437.093 404.827C437.093 404.827 436.509 406.215 435.434 408.227C433.808 411.321 431.829 414.216 429.536 416.855L429.359 417.045H428.297L390.456 417.392H389.551L389.439 417.26L382.102 408.554L379.336 405.272L379.225 405.134L378.989 404.859L378.858 404.702L378.688 404.499L373.307 398.118L375.273 389.928L378.622 376.131L378.707 375.797L379.363 373.176L379.828 371.21L381.388 364.803L386.735 342.758L396.238 347.672L406.258 365.366L411.638 374.865H414.586C415.143 374.865 416.42 375.94 417.706 377.178C418.164 377.618 418.623 378.082 419.016 378.488C420.183 379.693 421.106 380.728 421.106 380.728C421.106 380.728 425.884 380.833 427.169 384.594C427.235 384.776 427.29 384.962 427.332 385.151C427.759 386.629 428.314 388.067 428.991 389.448C429.836 391.289 430.898 393.379 431.973 395.468C433.971 399.301 436.003 402.95 436.75 404.27L436.842 404.434L437.093 404.827Z" fill="#6C63FF"/>
<path d="M192.512 419.974V419.424L307.609 418.173L377.735 417.518H377.932V417.406L378.587 408.605L378.869 404.674L379.944 389.858L380.789 378.131V377.843C380.828 377.303 380.803 376.76 380.716 376.225C380.719 376.203 380.719 376.181 380.716 376.16C380.536 375.054 380.086 374.01 379.405 373.12C378.684 372.195 377.738 371.469 376.658 371.011C375.578 370.552 374.398 370.376 373.231 370.499C365.294 371.312 357.28 371.961 349.258 372.465C348.163 372.544 347.069 372.612 345.981 372.668C294.245 375.741 242.975 373.251 215.232 371.358L213.266 371.212C208.462 370.871 204.445 370.557 201.351 370.288C199.65 370.145 197.955 370.637 196.595 371.669C195.234 372.701 194.305 374.2 193.985 375.877C193.919 376.231 193.879 376.59 193.867 376.951L193.422 391.469L192.812 409.858L192.524 419.266V419.999L192.512 419.974Z" fill="#090814"/>
<path d="M278.239 277.03C299.205 277.03 316.201 260.041 316.201 239.083C316.201 218.125 299.205 201.135 278.239 201.135C257.273 201.135 240.277 218.125 240.277 239.083C240.277 260.041 257.273 277.03 278.239 277.03Z" fill="#ED9DA0"/>
<path d="M329.548 212.577C329.254 212.262 328.9 212.011 328.506 211.837C328.112 211.662 327.687 211.569 327.257 211.563L327.828 209.979C328.013 209.48 328.063 208.94 327.971 208.416C327.88 207.891 327.651 207.401 327.308 206.994C326.964 206.587 326.519 206.278 326.018 206.099C325.516 205.92 324.976 205.878 324.452 205.976L322.374 206.377L322.57 204.988C322.645 204.471 322.585 203.943 322.395 203.456C322.204 202.97 321.89 202.541 321.483 202.213C321.076 201.884 320.591 201.667 320.075 201.584C319.559 201.5 319.03 201.552 318.54 201.735C318.094 201.911 317.615 201.984 317.138 201.95C316.66 201.916 316.196 201.776 315.78 201.539C315.362 201.31 314.999 200.992 314.716 200.608C314.434 200.224 314.238 199.783 314.144 199.316L313.42 195.825L313.346 195.638C309.819 189.761 303.038 185.487 294.739 183.919C287.353 182.514 279.779 183.23 272.477 183.902C269.58 184.175 266.309 184.482 263.583 186.15C261.266 187.581 259.306 190.443 259.706 193.33C252.508 191.124 244.788 195.53 240.963 201.079C236.431 207.688 235.69 215.969 235.57 222.438C235.247 237.751 238.408 250.279 244.942 259.68C245.419 260.362 245.538 261.784 246.483 262.26L246.287 261.945C247.343 262.473 248.415 263.325 248.016 264.236C246.866 266.859 254.508 272.658 259.893 274.578C269.716 278.078 282.776 277.78 291.958 276.519L292.281 274.347C295.596 273.896 297.931 273.036 298.586 271.69C299.744 270.702 300.733 269.817 301.594 268.999L301.603 268.99C301.62 268.973 301.654 268.948 301.671 268.931C305.82 264.954 306.783 262.688 307.217 259.239C307.635 255.858 306.894 252.426 306.135 249.337C322.101 251.807 299.848 232.339 314.72 228.574C314.891 228.522 315.064 228.479 315.24 228.447C315.674 228.345 316.108 228.242 316.526 228.123C318.537 227.577 320.464 226.755 322.249 225.679C326.406 223.15 327.779 219.795 329.926 216.014C330.235 215.475 330.365 214.852 330.296 214.235C330.228 213.618 329.963 213.039 329.542 212.582L329.548 212.577Z" fill="#090814"/>
<path d="M112.966 204.143H176.837C178.175 204.143 179.457 204.674 180.403 205.62C181.348 206.565 181.88 207.847 181.88 209.184C181.88 210.52 181.348 211.803 180.403 212.748C179.457 213.693 178.175 214.224 176.837 214.224H112.966C111.629 214.224 110.346 213.693 109.4 212.748C108.455 211.803 107.924 210.52 107.924 209.184C107.924 207.847 108.455 206.565 109.4 205.62C110.346 204.674 111.629 204.143 112.966 204.143Z" fill="#6C63FF"/>
<path d="M96.1579 227.666H193.646C194.983 227.666 196.266 228.197 197.212 229.142C198.157 230.087 198.688 231.369 198.688 232.706C198.688 234.043 198.157 235.325 197.212 236.27C196.266 237.215 194.983 237.746 193.646 237.746H96.1579C94.8206 237.746 93.5381 237.215 92.5925 236.27C91.6468 235.325 91.1156 234.043 91.1156 232.706C91.1156 231.369 91.6468 230.087 92.5925 229.142C93.5381 228.197 94.8206 227.666 96.1579 227.666Z" fill="#E6E6E6"/>
<path d="M96.1579 251.189H193.646C194.983 251.189 196.266 251.72 197.212 252.665C198.157 253.61 198.688 254.892 198.688 256.229C198.688 257.566 198.157 258.848 197.212 259.793C196.266 260.739 194.983 261.27 193.646 261.27H96.1579C94.8206 261.27 93.5381 260.739 92.5925 259.793C91.6468 258.848 91.1156 257.566 91.1156 256.229C91.1156 254.892 91.6468 253.61 92.5925 252.665C93.5381 251.72 94.8206 251.189 96.1579 251.189Z" fill="#E6E6E6"/>
</g>
<defs>
<clipPath id="clip0_8_93">
<rect width="587" height="420" fill="white"/>
</clipPath>
</defs>
</svg>
